<svg xmlns="http://www.w3.org/2000/svg" viewBox="0 0 1400 933" role="img" aria-label="Men's watches">
  <defs>
    <linearGradient id="bg" x1="0" y1="0" x2="1" y2="1">
      <stop offset="0" stop-color="#2a2c30"/>
      <stop offset="1" stop-color="#121316"/>
    </linearGradient>
    <radialGradient id="dial" cx="50%" cy="40%" r="60%">
      <stop offset="0" stop-color="#3a3d42"/>
      <stop offset="1" stop-color="#0f1012"/>
    </radialGradient>
  </defs>
  <rect width="1400" height="933" fill="url(#bg)"/>
  <rect x="120" y="620" width="1160" height="180" rx="8" fill="#1a1b1e"/>
  <g transform="translate(700 430)">
    <rect x="-28" y="-250" width="56" height="40" rx="6" fill="#b8c0c8"/>
    <rect x="-28" y="210" width="56" height="40" rx="6" fill="#b8c0c8"/>
    <rect x="210" y="-18" width="28" height="36" rx="4" fill="#b8c0c8"/>
    <circle r="220" fill="#c5ced6"/>
    <circle r="200" fill="#1b1e22"/>
    <circle r="168" fill="url(#dial)"/>
    <g stroke="#e8e4dc" stroke-width="3">
      <line x1="0" y1="-150" x2="0" y2="-128"/>
      <line x1="0" y1="128" x2="0" y2="150"/>
      <line x1="-150" y1="0" x2="-128" y2="0"/>
      <line x1="128" y1="0" x2="150" y2="0"/>
    </g>
    <line x1="0" y1="0" x2="0" y2="-90" stroke="#f4efe6" stroke-width="6" stroke-linecap="round"/>
    <line x1="0" y1="0" x2="70" y2="18" stroke="#c4a36a" stroke-width="5" stroke-linecap="round"/>
    <circle r="7" fill="#c4a36a"/>
  </g>
  <rect x="560" y="700" width="80" height="140" rx="8" fill="#3d2a22"/>
  <rect x="760" y="700" width="80" height="140" rx="8" fill="#3d2a22"/>
</svg>
